<svg xmlns="http://www.w3.org/2000/svg" viewBox="0 0 1600 900">
<defs>
 <linearGradient id="sky" x2="0" y2="1"><stop stop-color="#17102b"/><stop offset="1" stop-color="#05050a"/></linearGradient>
 <linearGradient id="road"><stop stop-color="#292334"/><stop offset="1" stop-color="#121019"/></linearGradient>
 <filter id="glow"><feGaussianBlur stdDeviation="7" result="b"/><feMerge><feMergeNode in="b"/><feMergeNode in="SourceGraphic"/></feMerge></filter>
</defs>
<rect width="1600" height="900" fill="url(#sky)"/>
<circle cx="1370" cy="120" r="75" fill="#d8c5ff" opacity=".25"/>
<path d="M0 680L420 500 790 610 1100 430 1600 620V900H0Z" fill="#0e0c15"/>
<g fill="#201a2b" stroke="#4c3b62" stroke-width="3">
<rect x="60" y="170" width="220" height="170" rx="12"/><rect x="300" y="120" width="170" height="220" rx="12"/>
<rect x="1110" y="120" width="190" height="210" rx="12"/><rect x="1330" y="180" width="190" height="160" rx="12"/>
<rect x="720" y="120" width="180" height="200" rx="12"/><rect x="940" y="160" width="130" height="170" rx="12"/>
</g>
<g fill="#a968ff" opacity=".7">
<rect x="90" y="205" width="28" height="10"/><rect x="130" y="205" width="28" height="10"/><rect x="170" y="205" width="28" height="10"/>
<rect x="330" y="160" width="25" height="9"/><rect x="370" y="160" width="25" height="9"/><rect x="410" y="160" width="25" height="9"/>
<rect x="1140" y="160" width="28" height="10"/><rect x="1180" y="160" width="28" height="10"/><rect x="1220" y="160" width="28" height="10"/>
<rect x="1360" y="220" width="25" height="9"/><rect x="1400" y="220" width="25" height="9"/><rect x="1440" y="220" width="25" height="9"/>
</g>
<!-- roads -->
<path d="M0 500L1600 360M0 760L1600 540M520 900L900 0M1100 900L960 0" fill="none" stroke="url(#road)" stroke-width="110"/>
<path d="M0 500L1600 360M0 760L1600 540M520 900L900 0M1100 900L960 0" fill="none" stroke="#56476c" stroke-width="3" stroke-dasharray="25 22"/>
<!-- stadium -->
<ellipse cx="390" cy="250" rx="270" ry="150" fill="#15111d" stroke="#a968ff" stroke-width="8"/>
<ellipse cx="390" cy="250" rx="205" ry="105" fill="#3a9d63" stroke="#d7c4ff" stroke-width="5"/>
<text x="390" y="255" text-anchor="middle" font-family="Arial" font-size="40" font-weight="900" fill="white">TORPEDO</text>
<text x="390" y="300" text-anchor="middle" font-family="Arial" font-size="25" fill="#d6bdff">STADIUM</text>
<!-- market -->
<rect x="1010" y="355" width="420" height="180" rx="20" fill="#17131f" stroke="#a968ff" stroke-width="7"/>
<text x="1220" y="435" text-anchor="middle" font-family="Arial" font-size="48" font-weight="900" fill="white">SH MARKET</text>
<text x="1220" y="475" text-anchor="middle" font-family="Arial" font-size="22" fill="#d7c5ff">BUY · SELL · TRADE</text>
<!-- factory -->
<rect x="110" y="560" width="430" height="190" rx="20" fill="#17131f" stroke="#a968ff" stroke-width="7"/>
<path d="M155 620h80v-70h55v70h80v-95h55v95h75v90H155z" fill="#28202f"/>
<text x="325" y="735" text-anchor="middle" font-family="Arial" font-size="39" font-weight="900" fill="white">CASE FACTORY</text>
<!-- courier -->
<rect x="1030" y="580" width="410" height="170" rx="20" fill="#17131f" stroke="#a968ff" stroke-width="7"/>
<rect x="1090" y="640" width="160" height="65" rx="12" fill="#352641"/><circle cx="1120" cy="715" r="20" fill="#09080c"/><circle cx="1210" cy="715" r="20" fill="#09080c"/>
<text x="1280" y="675" text-anchor="middle" font-family="Arial" font-size="38" font-weight="900" fill="white">COURIER</text>
<text x="1280" y="715" text-anchor="middle" font-family="Arial" font-size="38" font-weight="900" fill="white">HUB</text>
<!-- bank -->
<g transform="translate(1030 765)"><rect width="430" height="110" rx="18" fill="#17131f" stroke="#d8bd7b" stroke-width="5"/><text x="215" y="68" text-anchor="middle" font-family="Arial" font-size="39" font-weight="900" fill="#fff1c9">SHAMA BANK</text></g>
<!-- lights -->
<g fill="#b77aff" filter="url(#glow)">
<circle cx="600" cy="410" r="7"/><circle cx="700" cy="470" r="6"/><circle cx="830" cy="380" r="7"/><circle cx="920" cy="520" r="6"/>
<circle cx="610" cy="700" r="7"/><circle cx="820" cy="690" r="6"/><circle cx="930" cy="720" r="7"/>
</g>
</svg>